# xmcd
#
# Track frame offsets: 
#        150
#        14257
#        27843
#        41443
#        54604
#        68423
#        81072
#        92543
#        106685
#        119143
#        133030
#        146160
#        159560
#        172670
#        187645
#        202087
#        217274
#        231922
#        244499
#        257974
#        270881
#        281366
#        295750
#        307836
#        321557
#
# Disc length: 4468 seconds
#
# Revision: 0
# Processed by: cddbd v1.5.2PL0 Copyright (c) Steve Scherf et al.
# Submitted via: ExactAudioCopy v1.0b3
#
DISCID=63117219
DTITLE=Various Artist - Drunk and Nutty - Hillbillies Foolin' With The Blues
DYEAR=2002
DGENRE=Hillbilly
TTITLE0=Poole, Charlie with The North Carolina Ramblers - If The River
TTITLE0=Was Whiskey
TTITLE1=Darby and Tarlton - Sweet Sarah Blues
TTITLE2=Narmour and Smith - Carroll County Blues
TTITLE3=Cox, Bill and Cliff Hobbs - Oozlin' Daddy Blues
TTITLE4=Hutchison, Frank - K.C. Blues
TTITLE5=Callahan Brothers - Somebody's Been Using That Thing
TTITLE6=Dexter, Al - New Jelly Roll Blues
TTITLE7=Allen Brothers - Drunk And Nutty Blues
TTITLE8=Autry, Gene - Do Right Daddy Blues
TTITLE9=Callahan, Homer - Rattle Snake Daddy
TTITLE10=Hensley, Larry - Match Box Blues
TTITLE11=Carlisle, Cliff - Ash Can Blues
TTITLE12=Puckett, Riley - A Darkey's Wail
TTITLE13=Prairie Ramblers - Deep Elem Blues
TTITLE14=Justice, Dick - Brown Skin Blues
TTITLE15=Hutchison, Frank - Worried Blues
TTITLE16=Ashley, Tom - Haunted Road Blues
TTITLE17=Cox, Bill - Georgia Brown Blues
TTITLE18=Poole, Charlie with The North Carolina Ramblers - Ramblin' Bl
TTITLE18=ues
TTITLE19=Acuff, Roy and The Crazy Tennesseans - Steel Guitar Blues
TTITLE20=McDaniel, W. Lee and His Hillbilly Boys - Dirty Hangover Blues
TTITLE21=Turner, Lemuel - Jake Bottle Blues
TTITLE22=Rhythm Wreckers - Never No Mo' Blues
TTITLE23=Autry, Gene - Dallas County Jail Blues
TTITLE24=Carlisle and Ball - Guitar Blues
EXTD=
EXTT0=
EXTT1=
EXTT2=
EXTT3=
EXTT4=
EXTT5=
EXTT6=
EXTT7=
EXTT8=
EXTT9=
EXTT10=
EXTT11=
EXTT12=
EXTT13=
EXTT14=
EXTT15=
EXTT16=
EXTT17=
EXTT18=
EXTT19=
EXTT20=
EXTT21=
EXTT22=
EXTT23=
EXTT24=
PLAYORDER=
